# xmcd
# 
# Track frame offsets:
#     150
#     16321
#     36830
#     50148
#     64360
#     79422
#     102608
#     117117
#     130267
#     146485
# 
# Disc length: 2130
# 
# Revision: 0
# Processed by: cddbd v1.5.2PL0 Copyright (c) Steve Scherf et al.
# Submitted via: fre:ac v1.0.17
# 
DISCID=9308500a
DTITLE=Barry BigB Brenner - Keep it clean
DYEAR=2013
DGENRE=Blues
TTITLE0=Follow the dringing gourd
TTITLE1=Reap what you sow
TTITLE2=The back of his hand
TTITLE3=Stack O'Lee
TTITLE4=Cochinonas
TTITLE5=France blues
TTITLE6=St. Elmore's fire
TTITLE7=Pistol snapper blues
TTITLE8=Easy rider
TTITLE9=Keep it clean
EXTD=
EXTT0=
EXTT1=
EXTT2=
EXTT3=
EXTT4=
EXTT5=
EXTT6=
EXTT7=
EXTT8=
EXTT9=
PLAYORDER=
